<svg xmlns="http://www.w3.org/2000/svg" viewBox="0 0 64 64" fill="none">
  <rect width="64" height="64" rx="18" fill="#171328" />
  <path d="M17 22.5C17 18.9101 19.9101 16 23.5 16H32.5C36.0899 16 39 18.9101 39 22.5V25C39 28.5899 36.0899 31.5 32.5 31.5H23.5C19.9101 31.5 17 28.5899 17 25V22.5Z" fill="#F5F1EB" />
  <path d="M25 35.5C25 33.567 26.567 32 28.5 32H40.5C44.0899 32 47 34.9101 47 38.5V41.5C47 45.0899 44.0899 48 40.5 48H31.5C27.9101 48 25 45.0899 25 41.5V35.5Z" fill="#5D3DF5" />
  <circle cx="22" cy="23.5" r="2.5" fill="#171328" />
</svg>
